<?xml version="1.0" standalone="no"?>
<!DOCTYPE svg PUBLIC "-//W3C//DTD SVG 20010904//EN"
 "http://www.w3.org/TR/2001/REC-SVG-20010904/DTD/svg10.dtd">
<svg version="1.0" xmlns="http://www.w3.org/2000/svg"
 width="261.000000pt" height="261.000000pt" viewBox="0 0 261.000000 261.000000"
 preserveAspectRatio="xMidYMid meet">
<metadata>
Created by potrace 1.11, written by Peter Selinger 2001-2013
</metadata>
<g transform="translate(0.000000,261.000000) scale(0.100000,-0.100000)"
fill="#000000" stroke="none">
<path d="M1225 2522 c-133 -9 -312 -56 -432 -113 -355 -169 -604 -491 -679
-877 -18 -95 -25 -275 -13 -362 17 -122 20 -135 45 -220 119 -393 451 -711
849 -815 125 -32 181 -39 325 -38 316 1 599 117 831 340 184 177 308 408 353
659 14 79 16 355 2 419 -4 17 -9 44 -12 60 -3 17 -19 70 -35 119 -132 393
-451 689 -856 792 -115 29 -270 44 -378 36z m275 -142 c149 -27 323 -101 446
-190 82 -59 213 -196 269 -282 73 -110 145 -282 159 -383 4 -22 10 -63 14 -90
5 -28 7 -98 6 -155 -10 -514 -400 -963 -906 -1045 -573 -92 -1108 267 -1245
836 -13 56 -18 115 -18 239 0 188 17 275 85 432 149 347 494 606 859 645 31 3
58 7 60 9 7 7 211 -5 271 -16z"/>
<path d="M485 1868 c-2 -7 -3 -251 -2 -543 2 -434 4 -530 15 -527 8 1 11 -2 7
-8 -3 -6 -11 -8 -16 -5 -5 4 -8 -13 -6 -37 l2 -43 170 -1 c143 0 172 2 183 15
11 14 11 14 6 -1 -5 -15 1 -16 58 -12 34 2 72 6 83 8 11 3 28 5 38 5 10 1 16
5 12 10 -3 5 0 13 6 17 8 4 9 3 5 -4 -8 -13 4 -15 28 -6 9 3 13 10 10 15 -3 5
2 6 10 3 9 -3 26 5 41 20 14 14 25 23 25 21 0 -3 11 5 25 17 14 12 25 28 25
35 0 7 5 13 10 13 6 0 10 9 10 19 0 11 4 21 9 23 6 2 12 15 15 30 2 15 7 32
10 37 4 5 0 12 -6 14 -10 4 -10 6 1 6 9 1 8 6 -6 18 -10 10 -14 15 -9 11 20
-16 27 -7 25 30 -3 59 -20 122 -32 115 -5 -3 -7 -2 -4 4 9 14 -16 64 -29 59
-6 -3 -11 3 -10 12 1 11 -6 17 -20 16 -14 0 -20 4 -17 12 5 14 -32 28 -48 18
-7 -4 -9 -3 -5 4 7 11 -28 27 -42 18 -4 -2 -8 3 -9 12 -1 11 7 17 23 18 61 4
134 88 151 174 16 83 -3 220 -29 204 -7 -5 -8 -2 -3 6 5 8 1 18 -10 27 -11 7
-15 13 -9 13 17 0 -50 51 -93 70 -24 10 -69 24 -100 30 -70 12 -66 13 -57 -2
5 -9 3 -9 -9 1 -9 7 -26 11 -37 8 -11 -3 -20 0 -20 5 0 6 -6 5 -15 -2 -8 -7
-15 -8 -15 -3 0 5 -9 9 -20 10 -11 1 -20 -3 -20 -8 0 -6 -4 -7 -10 -4 -18 11
-70 14 -70 4 0 -6 -4 -7 -10 -4 -18 11 -70 14 -70 4 0 -6 -4 -7 -10 -4 -17 10
-70 14 -70 5 0 -6 -11 -5 -26 0 -32 13 -34 13 -39 -2z m518 -33 c-3 -9 -8 -14
-10 -11 -3 3 -2 9 2 15 9 16 15 13 8 -4z m-296 -50 c0 -8 -4 -12 -9 -9 -5 3
-6 10 -3 15 9 13 12 11 12 -6z m83 -9 c0 -3 -4 -8 -10 -11 -5 -3 -10 -1 -10 4
0 6 5 11 10 11 6 0 10 -2 10 -4z m-125 -18 c5 4 5 1 1 -6 -6 -10 -11 -10 -22
-1 -8 6 -14 14 -14 16 0 3 6 0 13 -6 8 -6 18 -7 22 -3z m248 -53 c9 -4 26 -5
37 -2 11 3 18 1 14 -4 -3 -5 6 -13 20 -19 14 -5 30 -18 36 -30 6 -11 14 -19
18 -16 15 9 12 -110 -3 -149 -15 -41 -58 -76 -100 -83 -29 -4 -59 -10 -65 -12
-3 -2 -9 -2 -13 -1 -39 7 -68 7 -72 1 -3 -4 -20 -4 -39 0 -19 4 -40 4 -47 -1
-7 -4 -20 -4 -28 1 -13 7 -16 30 -15 147 1 76 2 147 3 158 1 20 7 21 119 19
64 -1 125 -5 135 -9z m-369 -33 c3 -5 -1 -9 -9 -9 -8 0 -12 4 -9 9 3 4 7 8 9
8 2 0 6 -4 9 -8z m544 -167 c-3 -3 -9 2 -12 12 -6 14 -5 15 5 6 7 -7 10 -15 7
-18z m19 -30 c0 -8 -4 -12 -9 -9 -5 3 -6 10 -3 15 9 13 12 11 12 -6z m-577 -5
c0 -5 -5 -10 -11 -10 -5 0 -7 5 -4 10 3 6 8 10 11 10 2 0 4 -4 4 -10z m640 0
c0 -5 -5 -10 -11 -10 -5 0 -7 5 -4 10 3 6 8 10 11 10 2 0 4 -4 4 -10z m-576
-38 c3 -5 -1 -9 -9 -9 -8 0 -12 4 -9 9 3 4 7 8 9 8 2 0 6 -4 9 -8z m496 3 c0
-7 -30 -13 -34 -7 -3 4 4 9 15 9 10 1 19 0 19 -2z m-580 -25 c0 -5 -2 -10 -4
-10 -3 0 -8 5 -11 10 -3 6 -1 10 4 10 6 0 11 -4 11 -10z m640 0 c0 -5 -2 -10
-4 -10 -3 0 -8 5 -11 10 -3 6 -1 10 4 10 6 0 11 -4 11 -10z m-516 -18 c3 -5
-1 -9 -9 -9 -8 0 -12 4 -9 9 3 4 7 8 9 8 2 0 6 -4 9 -8z m-124 -22 c0 -5 -5
-10 -11 -10 -5 0 -7 5 -4 10 3 6 8 10 11 10 2 0 4 -4 4 -10z m85 0 c-3 -5 -12
-10 -18 -10 -7 0 -6 4 3 10 19 12 23 12 15 0z m232 -9 c0 -11 -5 -18 -9 -15
-4 3 -5 11 -1 19 7 21 12 19 10 -4z m-82 0 c3 -5 2 -12 -3 -15 -5 -3 -9 1 -9
9 0 17 3 19 12 6z m-101 -37 c3 -8 2 -12 -4 -9 -6 3 -10 10 -10 16 0 14 7 11
14 -7z m139 -29 c-7 -21 -12 -19 -10 4 0 11 5 18 9 15 4 -3 5 -11 1 -19z m-73
1 c0 -3 -4 -8 -10 -11 -5 -3 -10 -1 -10 4 0 6 5 11 10 11 6 0 10 -2 10 -4z
m-62 -31 c-3 -3 -9 2 -12 12 -6 14 -5 15 5 6 7 -7 10 -15 7 -18z m96 7 c3 -5
-1 -9 -9 -9 -8 0 -12 4 -9 9 3 4 7 8 9 8 2 0 6 -4 9 -8z m346 -6 c0 -2 -8 -10
-17 -17 -16 -13 -17 -12 -4 4 13 16 21 21 21 13z m55 -25 c3 -5 2 -12 -3 -15
-5 -3 -9 1 -9 9 0 17 3 19 12 6z m-186 -20 c24 -7 54 -24 68 -39 20 -22 26
-24 35 -12 8 12 9 11 4 -3 -3 -10 -3 -30 0 -44 5 -19 9 -22 16 -11 7 9 8 7 3
-7 -4 -11 -8 -46 -10 -77 -3 -35 -11 -65 -22 -79 -31 -38 -56 -59 -70 -59 -7
0 -13 -4 -13 -8 0 -10 -14 -11 -180 -15 l-135 -3 2 174 c1 95 4 180 7 188 4
11 29 13 128 10 68 -2 143 -9 167 -15z m-415 -29 c3 -5 -1 -9 -9 -9 -8 0 -12
4 -9 9 3 4 7 8 9 8 2 0 6 -4 9 -8z m-14 -202 c0 -5 -5 -10 -11 -10 -5 0 -7 5
-4 10 3 6 8 10 11 10 2 0 4 -4 4 -10z m595 0 c3 -5 1 -10 -4 -10 -6 0 -11 5
-11 10 0 6 2 10 4 10 3 0 8 -4 11 -10z m45 0 c0 -5 -5 -10 -11 -10 -5 0 -7 5
-4 10 3 6 8 10 11 10 2 0 4 -4 4 -10z m-576 -38 c3 -5 -1 -9 -9 -9 -8 0 -12 4
-9 9 3 4 7 8 9 8 2 0 6 -4 9 -8z m-84 -22 c0 -5 -2 -10 -4 -10 -3 0 -8 5 -11
10 -3 6 -1 10 4 10 6 0 11 -4 11 -10z m640 0 c0 -5 -2 -10 -4 -10 -3 0 -8 5
-11 10 -3 6 -1 10 4 10 6 0 11 -4 11 -10z m-516 -18 c3 -5 -1 -9 -9 -9 -8 0
-12 4 -9 9 3 4 7 8 9 8 2 0 6 -4 9 -8z m560 0 c3 -5 -1 -9 -9 -9 -8 0 -12 4
-9 9 3 4 7 8 9 8 2 0 6 -4 9 -8z m-684 -22 c0 -5 -5 -10 -11 -10 -5 0 -7 5 -4
10 3 6 8 10 11 10 2 0 4 -4 4 -10z m85 0 c-3 -5 -12 -10 -18 -10 -7 0 -6 4 3
10 19 12 23 12 15 0z m550 -9 c3 -5 2 -12 -3 -15 -5 -3 -9 1 -9 9 0 17 3 19
12 6z m-598 -56 c0 -8 -4 -12 -9 -9 -5 3 -6 10 -3 15 9 13 12 11 12 -6z m160
0 c0 -8 -4 -12 -9 -9 -5 3 -6 10 -3 15 9 13 12 11 12 -6z m183 0 c0 -2 -9 -3
-19 -2 -11 0 -18 5 -15 9 4 6 34 0 34 -7z m-260 -9 c0 -3 -4 -8 -10 -11 -5 -3
-10 -1 -10 4 0 6 5 11 10 11 6 0 10 -2 10 -4z m160 0 c0 -3 -4 -8 -10 -11 -5
-3 -10 -1 -10 4 0 6 5 11 10 11 6 0 10 -2 10 -4z m35 -15 c3 -5 2 -12 -3 -15
-5 -3 -9 1 -9 9 0 17 3 19 12 6z m-155 -7 c0 -8 -19 -13 -24 -6 -3 5 1 9 9 9
8 0 15 -2 15 -3z m-45 -24 c3 -5 1 -10 -4 -10 -6 0 -11 5 -11 10 0 6 2 10 4
10 3 0 8 -4 11 -10z m160 0 c3 -5 1 -10 -4 -10 -6 0 -11 5 -11 10 0 6 2 10 4
10 3 0 8 -4 11 -10z"/>
<path d="M1857 1507 c-2 -7 -3 -24 -3 -39 1 -14 -3 -24 -8 -21 -44 27 -88 -5
-90 -66 -1 -50 24 -81 62 -75 15 3 37 5 50 5 21 -1 22 2 22 98 0 76 -3 100
-14 104 -8 3 -16 0 -19 -6z m-19 -85 c27 -18 24 -75 -5 -86 -35 -14 -60 53
-31 82 14 14 19 14 36 4z"/>
<path d="M1350 1405 c0 -104 -4 -99 68 -96 48 1 72 17 72 49 0 16 -5 33 -11
39 -8 8 -8 17 0 31 23 43 -11 72 -83 72 l-46 0 0 -95z m93 51 c7 -18 -12 -36
-37 -36 -16 0 -21 6 -21 25 0 20 5 25 26 25 15 0 29 -6 32 -14z m2 -90 c0 -20
-35 -38 -53 -27 -6 4 -9 17 -5 29 7 30 58 28 58 -2z"/>
<path d="M1570 1450 c-8 -5 -24 -7 -36 -4 -20 5 -21 2 -20 -63 1 -64 10 -88
28 -77 4 3 8 28 8 55 0 35 4 51 15 54 8 3 22 7 30 10 8 2 12 11 9 20 -7 17
-13 18 -34 5z"/>
<path d="M1637 1449 c-25 -15 -11 -29 22 -23 20 4 30 1 34 -10 4 -9 1 -16 -6
-17 -58 -3 -77 -17 -77 -56 0 -31 31 -46 66 -33 20 8 29 8 34 -1 13 -20 22 8
22 67 1 30 -4 60 -10 66 -15 15 -64 19 -85 7z m53 -104 c-7 -8 -19 -15 -26
-15 -20 0 -17 38 4 43 25 5 37 -9 22 -28z"/>
<path d="M1356 1283 c-3 -4 -6 -49 -6 -100 l0 -94 57 3 c67 4 89 28 25 28 -23
0 -42 5 -44 13 -3 6 -3 42 -2 79 1 47 -2 68 -11 72 -7 2 -16 2 -19 -1z"/>
<path d="M1910 1276 c0 -10 9 -16 21 -16 24 0 21 23 -4 28 -10 2 -17 -3 -17
-12z"/>
<path d="M1497 1226 c-32 -24 -27 -105 7 -128 21 -14 73 -8 89 10 23 26 22 94
-1 115 -22 20 -70 21 -95 3z m75 -42 c15 -32 0 -59 -33 -59 -26 0 -35 21 -25
61 9 33 43 32 58 -2z"/>
<path d="M1639 1168 c37 -101 57 -103 91 -11 14 37 27 71 28 75 2 5 -5 8 -16
8 -16 0 -25 -12 -38 -52 l-17 -52 -20 52 c-13 35 -25 52 -37 52 -16 0 -15 -7
9 -72z"/>
<path d="M1780 1220 c-27 -27 -27 -83 1 -111 24 -24 92 -24 97 1 2 11 -7 15
-35 15 -27 0 -38 5 -41 16 -2 12 5 16 25 17 59 0 63 2 63 25 0 52 -71 76 -110
37z m70 -24 c0 -8 -10 -13 -25 -13 -25 0 -31 7 -18 20 12 12 43 7 43 -7z"/>
<path d="M1910 1152 c0 -81 -2 -90 -20 -95 -31 -8 -24 -27 10 -27 39 0 47 21
46 125 -1 68 -4 80 -18 83 -16 3 -18 -6 -18 -86z"/>
<path d="M1987 1222 c-26 -28 -22 -97 5 -116 24 -17 65 -21 84 -8 19 12 34 50
30 74 -3 13 -5 26 -5 30 -4 37 -86 51 -114 20z m77 -28 c19 -49 -7 -90 -43
-67 -14 9 -17 24 -12 71 2 18 48 15 55 -4z"/>
<path d="M2113 1223 c3 -10 15 -44 28 -75 24 -62 21 -88 -11 -88 -11 0 -20 -7
-20 -15 0 -20 44 -20 63 0 17 16 80 185 73 193 -13 12 -36 -11 -47 -47 -7 -23
-15 -41 -19 -41 -4 0 -13 20 -20 45 -10 34 -17 45 -32 45 -15 0 -19 -5 -15
-17z"/>
</g>
</svg>
