<svg xmlns="http://www.w3.org/2000/svg" viewBox="0 0 1024 1024"><defs><style>.cls-1{fill:#fff;}.cls-2{opacity:0.75;}.cls-3{fill:#aeaeae;}</style></defs><title>Logo_Inverse</title><g id="Circles"><path class="cls-1" d="M512,12C235.86,12,12,235.86,12,512s223.86,500,500,500,500-223.86,500-500S788.14,12,512,12Zm0,950C263.47,962,62,760.53,62,512S263.47,62,512,62,962,263.47,962,512,760.53,962,512,962Z"/></g><g id="Type_Name" data-name="Type Name"><path class="cls-1" d="M530.7,433.6H554q16.19,0,23.41,4.72t7.21,14.91a18.07,18.07,0,0,1-3.54,11.42,15.82,15.82,0,0,1-10.19,5.74v.54q8.26,1.56,12.15,6.14t3.89,12.41q0,10.56-7.37,16.54T559,512H530.7ZM543.51,466h12.33q8,0,11.74-2.55t3.7-8.66q0-5.52-4-8t-12.68-2.47h-11.1Zm0,10.4v24.83h13.62q8,0,12.15-3.08t4.1-9.73q0-6.11-4.18-9.06t-12.71-3Z"/><path class="cls-1" d="M627.88,451.62a30.41,30.41,0,0,1,6.27.54l-1.23,11.74a23.84,23.84,0,0,0-5.58-.64,16.14,16.14,0,0,0-12.25,4.93q-4.69,4.93-4.69,12.82v31h-12.6V452.69h9.87l1.66,10.46H610a23.49,23.49,0,0,1,7.7-8.42A18.29,18.29,0,0,1,627.88,451.62Z"/><path class="cls-1" d="M678.19,512l-2.52-8.26h-.43q-4.29,5.42-8.63,7.37a27.32,27.32,0,0,1-11.15,2q-8.74,0-13.65-4.72T636.9,495q0-9.17,6.81-13.83t20.75-5.09l10.24-.32v-3.16q0-5.68-2.65-8.5t-8.23-2.82a28.47,28.47,0,0,0-8.74,1.34,66,66,0,0,0-8,3.16l-4.08-9a43.92,43.92,0,0,1,10.56-3.83,48.66,48.66,0,0,1,10.83-1.31q11.31,0,17.08,4.93T687.2,472v40Zm-18.77-8.58q6.86,0,11-3.83t4.16-10.75v-5.15L667,484q-8.9.32-13,3t-4,8.12a7.92,7.92,0,0,0,2.36,6.14Q654.7,503.42,659.42,503.42Z"/><path class="cls-1" d="M720.73,513.07q-11.1,0-17.32-8t-6.22-22.58q0-14.59,6.3-22.71t17.46-8.12q11.69,0,17.8,8.63h.64a75.42,75.42,0,0,1-.91-10.08V428.56h12.66V512h-9.87l-2.2-7.78h-.59Q732.42,513.07,720.73,513.07Zm3.38-10.19q7.78,0,11.32-4.37t3.65-14.18v-1.77q0-11.21-3.65-15.93T724,461.91a11.59,11.59,0,0,0-10.24,5.39q-3.59,5.39-3.59,15.36t3.49,15Q717.13,502.88,724.11,502.88Z"/><path class="cls-1" d="M530.7,600.62v-78.4h12.82v67.41h33.19v11Z"/><path class="cls-1" d="M637.42,570.85q0,14.53-7.45,22.68t-20.75,8.15a28.43,28.43,0,0,1-14.69-3.75,24.77,24.77,0,0,1-9.81-10.78,36.71,36.71,0,0,1-3.43-16.3q0-14.43,7.4-22.52t20.86-8.1q12.87,0,20.38,8.29T637.42,570.85Zm-43.17,0q0,20.54,15.18,20.54,15,0,15-20.54,0-20.32-15.12-20.32-7.94,0-11.5,5.25T594.25,570.85Z"/><path class="cls-1" d="M661.35,600.62l-22.52-59.31h13.3l12.07,34.48a68.36,68.36,0,0,1,3.75,14h.43q.48-3.86,3.75-14l12.07-34.48H697.6L675,600.62Z"/><path class="cls-1" d="M728.45,601.69q-13.84,0-21.64-8.07T699,571.39q0-14.53,7.24-22.84t19.9-8.31q11.74,0,18.55,7.13T751.51,567v6.81H712q.27,8.63,4.67,13.27T729,591.71a45.76,45.76,0,0,0,9.79-1,51.3,51.3,0,0,0,9.73-3.3v10.24a38.69,38.69,0,0,1-9.33,3.11A57.24,57.24,0,0,1,728.45,601.69Zm-2.31-51.91a12.66,12.66,0,0,0-9.63,3.81q-3.62,3.81-4.32,11.1h26.92q-.11-7.35-3.54-11.13T726.14,549.78Z"/><path class="cls-1" d="M755.7,627a28.39,28.39,0,0,1-9.44-1.34v-10a29,29,0,0,0,7.45,1q8,0,8-9.12V541.31h12.6v67.08q0,9.17-4.8,13.89T755.7,627ZM761,525.59a7,7,0,0,1,1.85-5.2,7.21,7.21,0,0,1,5.28-1.82,7.06,7.06,0,0,1,5.17,1.82,7,7,0,0,1,1.85,5.2,6.85,6.85,0,0,1-1.85,5.07,7,7,0,0,1-5.17,1.85,7.15,7.15,0,0,1-5.28-1.85A6.85,6.85,0,0,1,761,525.59Z"/><path class="cls-1" d="M840.93,570.85q0,14.53-7.45,22.68t-20.75,8.15A28.43,28.43,0,0,1,798,597.93a24.77,24.77,0,0,1-9.81-10.78,36.71,36.71,0,0,1-3.43-16.3q0-14.43,7.4-22.52t20.86-8.1q12.87,0,20.38,8.29T840.93,570.85Zm-43.17,0q0,20.54,15.18,20.54,15,0,15-20.54,0-20.32-15.12-20.32-7.94,0-11.5,5.25T797.76,570.85Z"/><path class="cls-1" d="M842.33,541.31h13.73l12.07,33.62a63.86,63.86,0,0,1,3.65,13.51h.43a56.58,56.58,0,0,1,1.77-7.16q1.29-4.21,13.62-40h13.62L875.85,608.5Q868.93,627,852.79,627a36.31,36.31,0,0,1-8.15-.91v-10a29.55,29.55,0,0,0,6.49.64q9.12,0,12.82-10.56l2.2-5.58Z"/></g><g id="Type_Initial" data-name="Type Initial"><g class="cls-2"><path class="cls-3" d="M171,278.89H305.39q93.54,0,135.21,29t41.66,91.67q0,42.21-20.44,70.24T403,505.1v3.3q47.7,9.57,70.16,37.76t22.46,76.34q0,65-42.59,101.73T334.51,761H171Zm74,199.18h71.24q46.46,0,67.84-15.66t21.37-53.26q0-34-23.08-49.13t-73.26-15.17H245Zm0,64V694.72h78.68q46.46,0,70.16-19t23.7-59.85q0-37.59-24.16-55.73T320,542Z"/></g></g></svg>